<svg width="353" height="96" viewBox="0 0 353 96" fill="none" xmlns="http://www.w3.org/2000/svg">
<path d="M66.8942 47.0645C67.5182 47.0645 67.9982 47.3525 68.3342 47.9285C68.7182 48.5045 68.9102 49.2965 68.9102 50.3045C68.9102 52.1765 68.4542 53.6645 67.5422 54.7685C65.2382 57.5525 62.9102 59.7125 60.5582 61.2485C58.2062 62.7365 55.4222 63.4805 52.2062 63.4805C49.0862 63.4805 46.4222 62.6405 44.2142 60.9605C42.0542 59.2805 39.9902 56.4005 38.0222 52.3205C36.4382 49.0565 35.1902 46.6565 34.2782 45.1205C33.3662 43.5365 32.4542 42.4085 31.5422 41.7365C30.6782 41.0645 29.5982 40.6565 28.3022 40.5125C28.1102 41.5205 27.5582 44.6885 26.6462 50.0165C26.2622 52.4165 26.0222 53.8805 25.9262 54.4085C25.4462 57.3365 24.4862 59.5925 23.0462 61.1765C21.6062 62.7125 19.4222 63.4805 16.4942 63.4805C13.2782 63.4805 10.4222 62.5445 7.92621 60.6725C5.47821 58.7525 3.58221 56.1125 2.23821 52.7525C0.894207 49.3445 0.222207 45.4805 0.222207 41.1605C0.222207 33.0965 1.61421 26.1365 4.39821 20.2805C7.23021 14.4245 11.1662 9.96048 16.2062 6.88848C21.2942 3.76848 27.1502 2.20848 33.7742 2.20848C38.3822 2.20848 42.2462 2.90448 45.3662 4.29648C48.4862 5.68848 50.7902 7.60848 52.2782 10.0565C53.8142 12.5045 54.5822 15.2645 54.5822 18.3365C54.5822 21.0245 53.9342 23.6645 52.6382 26.2565C51.3902 28.8005 49.4942 31.0565 46.9502 33.0245C44.4062 34.9925 41.3102 36.4565 37.6622 37.4165C39.9662 38.0405 41.7422 39.0485 42.9902 40.4405C44.2382 41.8325 45.4862 43.8725 46.7342 46.5605C48.0782 49.4405 49.3982 51.5525 50.6942 52.8965C52.0382 54.2405 53.5742 54.9125 55.3022 54.9125C56.8382 54.9125 58.3022 54.4085 59.6942 53.4005C61.0862 52.3445 62.8382 50.5685 64.9502 48.0725C65.5262 47.4005 66.1742 47.0645 66.8942 47.0645ZM18.3662 40.4405C16.7342 40.4405 15.6062 40.0565 14.9822 39.2885C14.4062 38.5205 14.1182 37.6565 14.1182 36.6965C14.1182 35.5445 14.4782 34.6325 15.1982 33.9605C15.9662 33.2885 16.8302 32.9525 17.7902 32.9525H19.5902C20.3582 28.2485 21.0782 24.1925 21.7502 20.7845C22.3742 17.6645 24.3902 16.1045 27.7982 16.1045C30.5342 16.1045 31.9022 17.3285 31.9022 19.7765C31.9022 20.3045 31.8782 20.7125 31.8302 21.0005L29.6702 32.9525C32.2622 32.8085 34.6142 32.1845 36.7262 31.0805C38.8862 29.9765 40.5902 28.4405 41.8382 26.4725C43.1342 24.5045 43.7822 22.2725 43.7822 19.7765C43.7822 16.7525 42.7502 14.3765 40.6862 12.6485C38.6222 10.9205 35.5982 10.0565 31.6142 10.0565C26.9102 10.0565 22.7822 11.2325 19.2302 13.5845C15.7262 15.8885 12.9902 19.3445 11.0222 23.9525C9.05421 28.5125 8.07021 34.0805 8.07021 40.6565C8.07021 43.7285 8.38221 46.3685 9.00621 48.5765C9.63021 50.7845 10.3982 52.4405 11.3102 53.5445C12.2222 54.6485 13.0862 55.2005 13.9022 55.2005C14.5262 55.2005 15.0302 54.8885 15.4142 54.2645C15.8462 53.6405 16.1822 52.6325 16.4222 51.2405L18.3662 40.4405ZM93.7755 47.0645C94.3995 47.0645 94.8795 47.3525 95.2155 47.9285C95.5995 48.5045 95.7915 49.2965 95.7915 50.3045C95.7915 52.2245 95.3355 53.7125 94.4235 54.7685C92.6475 56.9285 90.1275 58.9205 86.8635 60.7445C83.6475 62.5685 80.1915 63.4805 76.4955 63.4805C71.4555 63.4805 67.5435 62.1125 64.7595 59.3765C61.9755 56.6405 60.5835 52.8965 60.5835 48.1445C60.5835 44.8325 61.2795 41.7605 62.6715 38.9285C64.0635 36.0485 65.9835 33.7685 68.4315 32.0885C70.9275 30.4085 73.7355 29.5685 76.8555 29.5685C79.6395 29.5685 81.8715 30.4085 83.5515 32.0885C85.2315 33.7205 86.0715 35.9525 86.0715 38.7845C86.0715 42.0965 84.8715 44.9525 82.4715 47.3525C80.1195 49.7045 76.1115 51.5765 70.4475 52.9685C71.6475 55.1765 73.9275 56.2805 77.2875 56.2805C79.4475 56.2805 81.8955 55.5365 84.6315 54.0485C87.4155 52.5125 89.8155 50.5205 91.8315 48.0725C92.4075 47.4005 93.0555 47.0645 93.7755 47.0645ZM75.6315 36.6245C73.8555 36.6245 72.3435 37.6565 71.0955 39.7205C69.8955 41.7845 69.2955 44.2805 69.2955 47.2085V47.3525C72.1275 46.6805 74.3595 45.6725 75.9915 44.3285C77.6235 42.9845 78.4395 41.4245 78.4395 39.6485C78.4395 38.7365 78.1755 38.0165 77.6475 37.4885C77.1675 36.9125 76.4955 36.6245 75.6315 36.6245ZM103.321 65.0645C100.825 65.0645 98.9051 64.4885 97.5611 63.3365C96.2651 62.1845 95.6171 60.8885 95.6171 59.4485C95.6171 58.2005 96.0731 57.1205 96.9851 56.2085C97.8971 55.2965 99.2411 54.8405 101.017 54.8405C101.641 54.8405 102.361 54.9125 103.177 55.0565C104.041 55.1525 104.689 55.2245 105.121 55.2725C105.073 54.0245 104.785 52.8485 104.257 51.7445C103.777 50.6405 103.153 49.5845 102.385 48.5765C101.617 47.5205 100.897 46.6085 100.225 45.8405C98.7371 48.6725 97.2491 51.0245 95.7611 52.8965C94.3211 54.7685 92.7371 56.5445 91.0091 58.2245C90.1451 59.0885 89.2331 59.5205 88.2731 59.5205C87.5051 59.5205 86.8811 59.2565 86.4011 58.7285C85.9211 58.1525 85.6811 57.4565 85.6811 56.6405C85.6811 55.6805 86.0171 54.7925 86.6891 53.9765L87.6251 52.8245C90.2651 49.5605 92.2571 46.8725 93.6011 44.7605C94.4171 43.3685 95.3771 41.5205 96.4811 39.2165C97.5851 36.8645 98.6651 34.4405 99.7211 31.9445C100.633 29.8325 102.529 28.7765 105.409 28.7765C106.753 28.7765 107.689 28.8965 108.217 29.1365C108.745 29.3765 109.009 29.7605 109.009 30.2885C109.009 30.5765 108.913 31.0325 108.721 31.6565C108.529 32.2805 108.265 32.9045 107.929 33.5285C107.065 35.2565 106.633 36.7205 106.633 37.9205C106.633 38.6405 106.873 39.4325 107.353 40.2965C107.881 41.1605 108.673 42.2405 109.729 43.5365C111.265 45.5525 112.417 47.2805 113.185 48.7205C114.001 50.1125 114.409 51.6485 114.409 53.3285C114.409 53.8085 114.361 54.4805 114.265 55.3445C116.617 54.4325 119.377 52.0085 122.545 48.0725C123.121 47.4005 123.769 47.0645 124.489 47.0645C125.113 47.0645 125.593 47.3525 125.929 47.9285C126.313 48.5045 126.505 49.2965 126.505 50.3045C126.505 52.1285 126.049 53.6165 125.137 54.7685C122.737 57.7445 120.433 59.7845 118.225 60.8885C116.065 61.9445 113.377 62.5205 110.161 62.6165C108.241 64.2485 105.961 65.0645 103.321 65.0645ZM152.768 47.0645C153.392 47.0645 153.872 47.3525 154.208 47.9285C154.592 48.5045 154.784 49.2965 154.784 50.3045C154.784 52.2245 154.328 53.7125 153.416 54.7685C151.352 57.3125 149.096 59.4005 146.648 61.0325C144.2 62.6645 141.392 63.4805 138.224 63.4805C128.432 63.4805 123.536 56.5925 123.536 42.8165C123.536 40.7045 123.608 38.5685 123.752 36.4085H120.944C119.504 36.4085 118.52 36.1445 117.992 35.6165C117.512 35.0885 117.272 34.2485 117.272 33.0965C117.272 30.4085 118.352 29.0645 120.512 29.0645H124.616C125.432 23.7845 126.68 18.9605 128.36 14.5925C130.04 10.2245 132.056 6.74448 134.408 4.15248C136.808 1.56048 139.376 0.264482 142.112 0.264482C144.128 0.264482 145.712 1.15248 146.864 2.92848C148.016 4.70448 148.592 6.93648 148.592 9.62448C148.592 17.0645 145.472 23.5445 139.232 29.0645H147.296C148.064 29.0645 148.616 29.2325 148.952 29.5685C149.288 29.9045 149.456 30.5285 149.456 31.4405C149.456 34.7525 146.744 36.4085 141.32 36.4085H132.536C132.44 38.8085 132.392 40.6805 132.392 42.0245C132.392 47.0165 132.968 50.5205 134.12 52.5365C135.32 54.5525 137.192 55.5605 139.736 55.5605C141.8 55.5605 143.624 54.9365 145.208 53.6885C146.792 52.4405 148.664 50.5685 150.824 48.0725C151.4 47.4005 152.048 47.0645 152.768 47.0645ZM140.168 7.17648C139.448 7.17648 138.632 8.08848 137.72 9.91248C136.856 11.6885 136.016 14.1845 135.2 17.4005C134.432 20.5685 133.784 24.0965 133.256 27.9845C136.088 25.5365 138.2 22.8005 139.592 19.7765C141.032 16.7045 141.752 13.9205 141.752 11.4245C141.752 8.59248 141.224 7.17648 140.168 7.17648ZM161.089 63.4805C158.257 63.4805 155.833 62.7845 153.817 61.3925C151.849 59.9525 150.361 58.0805 149.353 55.7765C148.345 53.4725 147.841 51.0005 147.841 48.3605C147.841 44.7125 148.513 41.4725 149.857 38.6405C151.249 35.7605 153.121 33.5285 155.473 31.9445C157.825 30.3125 160.465 29.4965 163.393 29.4965C166.225 29.4965 168.649 30.2165 170.665 31.6565C172.681 33.0485 174.193 34.8965 175.201 37.2005C176.209 39.5045 176.713 41.9765 176.713 44.6165C176.713 48.2645 176.017 51.5285 174.625 54.4085C173.233 57.2405 171.337 59.4725 168.937 61.1045C166.585 62.6885 163.969 63.4805 161.089 63.4805ZM161.881 55.7045C163.513 55.7045 164.881 54.8165 165.985 53.0405C167.137 51.2645 167.713 48.6725 167.713 45.2645C167.713 42.6245 167.233 40.6325 166.273 39.2885C165.313 37.9445 164.161 37.2725 162.817 37.2725C161.089 37.2725 159.649 38.1605 158.497 39.9365C157.393 41.6645 156.841 44.2565 156.841 47.7125C156.841 50.4485 157.321 52.4645 158.281 53.7605C159.241 55.0565 160.441 55.7045 161.881 55.7045ZM261.369 47.2085C261.993 47.2085 262.473 47.5205 262.809 48.1445C263.193 48.7205 263.385 49.4645 263.385 50.3765C263.385 51.4805 263.217 52.3445 262.881 52.9685C262.545 53.5925 262.017 54.1445 261.297 54.6245C258.465 56.4965 253.953 59.5685 247.761 63.8405C245.889 73.7765 243.465 81.6005 240.489 87.3125C237.513 93.0245 233.745 95.8805 229.185 95.8805C226.737 95.8805 224.745 95.1125 223.209 93.5765C221.673 92.0885 220.905 90.1205 220.905 87.6725C220.905 85.4165 221.409 83.1365 222.417 80.8325C223.425 78.5285 225.297 75.8645 228.033 72.8405C230.817 69.8165 234.729 66.3605 239.769 62.4725L239.985 61.1045C236.193 62.6885 232.473 63.4805 228.825 63.4805C223.449 63.4805 218.721 62.4485 214.641 60.3845C210.561 58.2725 207.393 55.2965 205.137 51.4565C202.881 47.6165 201.753 43.1525 201.753 38.0645C201.753 30.9605 203.097 24.6965 205.785 19.2725C208.473 13.8005 212.169 9.57648 216.873 6.60048C221.625 3.57648 226.929 2.06448 232.785 2.06448C238.401 2.06448 242.601 3.38448 245.385 6.02448C248.217 8.61648 249.633 12.0725 249.633 16.3925C249.633 19.2245 249.105 21.5045 248.049 23.2325C247.041 24.9125 245.577 25.7525 243.657 25.7525C242.361 25.7525 241.305 25.4405 240.489 24.8165C239.721 24.1925 239.337 23.3285 239.337 22.2245C239.337 21.7445 239.433 20.9285 239.625 19.7765C239.913 18.4325 240.057 17.3765 240.057 16.6085C240.057 14.5925 239.433 13.0325 238.185 11.9285C236.985 10.8245 234.945 10.2725 232.065 10.2725C228.561 10.2725 225.297 11.2805 222.273 13.2965C219.297 15.3125 216.897 18.3365 215.073 22.3685C213.249 26.3525 212.337 31.1525 212.337 36.7685C212.337 42.5285 213.897 46.9925 217.017 50.1605C220.185 53.2805 224.745 54.8405 230.697 54.8405C234.009 54.8405 237.465 54.0965 241.065 52.6085L242.073 43.8245H234.729C233.385 43.8245 232.353 43.5125 231.633 42.8885C230.913 42.2165 230.553 41.1365 230.553 39.6485C230.553 38.3045 230.913 37.2485 231.633 36.4805C232.353 35.7125 233.313 35.3285 234.513 35.3285H247.977C249.033 35.3285 249.897 35.6885 250.569 36.4085C251.289 37.0805 251.577 38.0645 251.433 39.3605C251.289 40.8965 250.809 44.3765 249.993 49.8005L249.201 55.2725C253.041 52.3925 256.545 49.8965 259.713 47.7845C260.337 47.4005 260.889 47.2085 261.369 47.2085ZM229.977 88.8965C231.225 88.8965 232.593 87.4805 234.081 84.6485C235.569 81.8165 236.961 77.2565 238.257 70.9685C234.609 74.0885 231.969 76.8965 230.337 79.3925C228.753 81.9365 227.961 84.1685 227.961 86.0885C227.961 87.9605 228.633 88.8965 229.977 88.8965ZM265.531 63.4805C263.371 63.4805 261.595 62.4965 260.203 60.5285C258.859 58.5125 258.187 56.0165 258.187 53.0405C258.187 49.4405 258.427 46.1525 258.907 43.1765C259.387 40.1525 260.179 36.9605 261.283 33.6005C261.763 32.1605 262.435 31.1285 263.299 30.5045C264.163 29.8805 265.531 29.5685 267.403 29.5685C268.459 29.5685 269.179 29.7365 269.563 30.0725C269.995 30.4085 270.211 30.9125 270.211 31.5845C270.211 31.9685 269.947 33.2645 269.419 35.4725C268.939 37.2485 268.555 38.8565 268.267 40.2965C267.307 45.3365 266.827 48.6965 266.827 50.3765C266.827 51.3845 266.947 52.1045 267.187 52.5365C267.427 52.9205 267.811 53.1125 268.339 53.1125C269.059 53.1125 269.947 52.3925 271.003 50.9525C272.107 49.5125 273.259 47.3285 274.459 44.4005C275.707 41.4725 276.907 37.8725 278.059 33.6005C278.443 32.1605 279.019 31.1285 279.787 30.5045C280.603 29.8805 281.803 29.5685 283.387 29.5685C284.491 29.5685 285.259 29.7125 285.691 30.0005C286.123 30.2405 286.339 30.7205 286.339 31.4405C286.339 32.6405 285.739 35.9285 284.539 41.3045C283.195 47.4485 282.523 51.2405 282.523 52.6805C282.523 53.5925 282.715 54.3125 283.099 54.8405C283.483 55.3205 283.987 55.5605 284.611 55.5605C285.571 55.5605 286.699 54.9845 287.995 53.8325C289.339 52.6325 291.115 50.7125 293.323 48.0725C293.899 47.4005 294.547 47.0645 295.267 47.0645C295.891 47.0645 296.371 47.3525 296.707 47.9285C297.091 48.5045 297.283 49.2965 297.283 50.3045C297.283 52.2245 296.827 53.7125 295.915 54.7685C293.851 57.3125 291.619 59.4005 289.219 61.0325C286.867 62.6645 284.179 63.4805 281.155 63.4805C278.851 63.4805 277.147 62.5925 276.043 60.8165C274.987 59.0405 274.459 56.5445 274.459 53.3285C273.643 56.5925 272.419 59.1125 270.787 60.8885C269.155 62.6165 267.403 63.4805 265.531 63.4805ZM296.557 63.4805C294.733 63.4805 293.437 62.5205 292.669 60.6005C291.949 58.6805 291.589 55.6085 291.589 51.3845C291.589 45.1445 292.477 39.2165 294.253 33.6005C294.685 32.2085 295.381 31.2005 296.341 30.5765C297.349 29.9045 298.741 29.5685 300.517 29.5685C301.477 29.5685 302.149 29.6885 302.533 29.9285C302.917 30.1685 303.109 30.6245 303.109 31.2965C303.109 32.0645 302.749 33.7925 302.029 36.4805C301.549 38.4005 301.165 40.0805 300.877 41.5205C300.589 42.9605 300.349 44.7365 300.157 46.8485C301.741 42.7205 303.517 39.3605 305.485 36.7685C307.453 34.1765 309.373 32.3285 311.245 31.2245C313.165 30.1205 314.917 29.5685 316.501 29.5685C319.621 29.5685 321.181 31.1285 321.181 34.2485C321.181 34.8725 320.965 36.3845 320.533 38.7845C320.149 40.7045 319.957 41.9045 319.957 42.3845C319.957 44.0645 320.557 44.9045 321.757 44.9045C323.101 44.9045 324.829 43.8485 326.941 41.7365C327.565 41.1125 328.213 40.8005 328.885 40.8005C329.509 40.8005 329.989 41.0885 330.325 41.6645C330.709 42.1925 330.901 42.9125 330.901 43.8245C330.901 45.6005 330.421 46.9925 329.461 48.0005C328.117 49.3925 326.533 50.5925 324.709 51.6005C322.933 52.5605 321.037 53.0405 319.021 53.0405C316.477 53.0405 314.533 52.3925 313.189 51.0965C311.893 49.8005 311.245 48.0485 311.245 45.8405C311.245 45.1205 311.317 44.4005 311.461 43.6805C311.557 42.7205 311.605 42.0725 311.605 41.7365C311.605 40.9685 311.341 40.5845 310.813 40.5845C310.093 40.5845 309.133 41.4005 307.933 43.0325C306.781 44.6165 305.629 46.7285 304.477 49.3685C303.325 52.0085 302.389 54.7925 301.669 57.7205C301.141 59.9765 300.517 61.5125 299.797 62.3285C299.125 63.0965 298.045 63.4805 296.557 63.4805ZM331.698 63.4805C329.442 63.4805 327.618 62.5685 326.226 60.7445C324.882 58.8725 324.21 56.3045 324.21 53.0405C324.21 49.4405 324.45 46.1525 324.93 43.1765C325.41 40.1525 326.202 36.9605 327.306 33.6005C327.786 32.1605 328.458 31.1285 329.322 30.5045C330.186 29.8805 331.554 29.5685 333.426 29.5685C334.482 29.5685 335.202 29.7365 335.586 30.0725C336.018 30.4085 336.234 30.9125 336.234 31.5845C336.234 31.9685 335.97 33.2645 335.442 35.4725C334.962 37.2485 334.578 38.8565 334.29 40.2965C333.33 45.3365 332.85 48.6965 332.85 50.3765C332.85 51.3845 332.97 52.1045 333.21 52.5365C333.45 52.9205 333.834 53.1125 334.362 53.1125C335.082 53.1125 335.994 52.3925 337.098 50.9525C338.202 49.4645 339.354 47.2565 340.554 44.3285C341.802 41.3525 342.978 37.7765 344.082 33.6005C344.466 32.1605 345.042 31.1285 345.81 30.5045C346.626 29.8805 347.826 29.5685 349.41 29.5685C350.466 29.5685 351.21 29.8565 351.642 30.4325C352.122 30.9605 352.362 31.7765 352.362 32.8805C352.362 34.0805 352.266 35.4245 352.074 36.9125C351.882 38.3525 351.666 39.8405 351.426 41.3765C350.946 44.4485 350.562 47.2565 350.274 49.8005C349.986 52.2965 349.842 55.1525 349.842 58.3685C349.842 60.1925 349.458 61.5125 348.69 62.3285C347.97 63.0965 346.77 63.4805 345.09 63.4805C343.314 63.4805 342.066 63.0245 341.346 62.1125C340.674 61.1525 340.338 59.3285 340.338 56.6405C340.338 56.1125 340.386 54.9365 340.482 53.1125C339.666 56.4725 338.442 59.0405 336.81 60.8165C335.226 62.5925 333.522 63.4805 331.698 63.4805Z" fill="white" fill-opacity="0.87"/>
</svg>
